{"asset":{"version":"2.0","generator":"Blockbench 5.0.4 glTF exporter"},"scenes":[{"nodes":[0,1,2,3,4,5,6,7,8,9,10,11,13],"name":"blockbench_export"}],"scene":0,"nodes":[{"translation":[0.5,0.625,0.9375],"name":"base","mesh":0},{"translation":[0,0.25,0],"name":"unused-panel","mesh":1},{"rotation":[0.5187732581605214,0,0,0.8549118706729466],"translation":[0.5,0.625,0.9375],"name":"open-panel","mesh":2},{"translation":[0.5,0.5625,0],"name":"spinner","mesh":3},{"translation":[0,0.1875,0],"name":"bottom","mesh":4},{"translation":[-0.5,0.4375,-0.9375],"name":"buttons","mesh":5},{"translation":[1.375,0.5,-0.9375],"name":"button1","mesh":6},{"translation":[1.375,0.4375,0.9375],"name":"bone1","mesh":7},{"translation":[-1.375,0.4375,0.9375],"name":"bone2","mesh":8},{"translation":[1.375,0.3125,-0.9375],"name":"button2","mesh":9},{"translation":[-1,0.4375,-0.9375],"name":"led","mesh":10},{"translation":[0.0625,0.4375,-0.9375],"name":"led2","mesh":11},{"name":"legs"},{"translation":[1.25,0.125,0.75],"name":"legs","mesh":12,"children":[12],"skin":0}],"bufferViews":[{"buffer":0,"byteOffset":0,"byteLength":912,"target":34962,"byteStride":12},{"buffer":0,"byteOffset":912,"byteLength":912,"target":34962,"byteStride":12},{"buffer":0,"byteOffset":1824,"byteLength":608,"target":34962,"byteStride":8},{"buffer":0,"byteOffset":2432,"byteLength":84,"target":34963},{"buffer":0,"byteOffset":2516,"byteLength":12,"target":34963},{"buffer":0,"byteOffset":2528,"byteLength":132,"target":34963},{"buffer":0,"byteOffset":2660,"byteLength":240,"target":34962,"byteStride":12},{"buffer":0,"byteOffset":2900,"byteLength":240,"target":34962,"byteStride":12},{"buffer":0,"byteOffset":3140,"byteLength":160,"target":34962,"byteStride":8},{"buffer":0,"byteOffset":3300,"byteLength":60,"target":34963},{"buffer":0,"byteOffset":3360,"byteLength":240,"target":34962,"byteStride":12},{"buffer":0,"byteOffset":3600,"byteLength":240,"target":34962,"byteStride":12},{"buffer":0,"byteOffset":3840,"byteLength":160,"target":34962,"byteStride":8},{"buffer":0,"byteOffset":4000,"byteLength":60,"target":34963},{"buffer":0,"byteOffset":4060,"byteLength":1440,"target":34962,"byteStride":12},{"buffer":0,"byteOffset":5500,"byteLength":1440,"target":34962,"byteStride":12},{"buffer":0,"byteOffset":6940,"byteLength":960,"target":34962,"byteStride":8},{"buffer":0,"byteOffset":7900,"byteLength":288,"target":34963},{"buffer":0,"byteOffset":8188,"byteLength":288,"target":34962,"byteStride":12},{"buffer":0,"byteOffset":8476,"byteLength":288,"target":34962,"byteStride":12},{"buffer":0,"byteOffset":8764,"byteLength":192,"target":34962,"byteStride":8},{"buffer":0,"byteOffset":8956,"byteLength":72,"target":34963},{"buffer":0,"byteOffset":9028,"byteLength":816,"target":34962,"byteStride":12},{"buffer":0,"byteOffset":9844,"byteLength":816,"target":34962,"byteStride":12},{"buffer":0,"byteOffset":10660,"byteLength":544,"target":34962,"byteStride":8},{"buffer":0,"byteOffset":11204,"byteLength":12,"target":34963},{"buffer":0,"byteOffset":11216,"byteLength":12,"target":34963},{"buffer":0,"byteOffset":11228,"byteLength":24,"target":34963},{"buffer":0,"byteOffset":11252,"byteLength":24,"target":34963},{"buffer":0,"byteOffset":11276,"byteLength":108,"target":34963},{"buffer":0,"byteOffset":11384,"byteLength":24,"target":34963},{"buffer":0,"byteOffset":11408,"byteLength":288,"target":34962,"byteStride":12},{"buffer":0,"byteOffset":11696,"byteLength":288,"target":34962,"byteStride":12},{"buffer":0,"byteOffset":11984,"byteLength":192,"target":34962,"byteStride":8},{"buffer":0,"byteOffset":12176,"byteLength":72,"target":34963},{"buffer":0,"byteOffset":12248,"byteLength":288,"target":34962,"byteStride":12},{"buffer":0,"byteOffset":12536,"byteLength":288,"target":34962,"byteStride":12},{"buffer":0,"byteOffset":12824,"byteLength":192,"target":34962,"byteStride":8},{"buffer":0,"byteOffset":13016,"byteLength":72,"target":34963},{"buffer":0,"byteOffset":13088,"byteLength":288,"target":34962,"byteStride":12},{"buffer":0,"byteOffset":13376,"byteLength":288,"target":34962,"byteStride":12},{"buffer":0,"byteOffset":13664,"byteLength":192,"target":34962,"byteStride":8},{"buffer":0,"byteOffset":13856,"byteLength":72,"target":34963},{"buffer":0,"byteOffset":13928,"byteLength":288,"target":34962,"byteStride":12},{"buffer":0,"byteOffset":14216,"byteLength":288,"target":34962,"byteStride":12},{"buffer":0,"byteOffset":14504,"byteLength":192,"target":34962,"byteStride":8},{"buffer":0,"byteOffset":14696,"byteLength":72,"target":34963},{"buffer":0,"byteOffset":14768,"byteLength":288,"target":34962,"byteStride":12},{"buffer":0,"byteOffset":15056,"byteLength":288,"target":34962,"byteStride":12},{"buffer":0,"byteOffset":15344,"byteLength":192,"target":34962,"byteStride":8},{"buffer":0,"byteOffset":15536,"byteLength":48,"target":34963},{"buffer":0,"byteOffset":15584,"byteLength":12,"target":34963},{"buffer":0,"byteOffset":15596,"byteLength":12,"target":34963},{"buffer":0,"byteOffset":15608,"byteLength":288,"target":34962,"byteStride":12},{"buffer":0,"byteOffset":15896,"byteLength":288,"target":34962,"byteStride":12},{"buffer":0,"byteOffset":16184,"byteLength":192,"target":34962,"byteStride":8},{"buffer":0,"byteOffset":16376,"byteLength":72,"target":34963},{"buffer":0,"byteOffset":16448,"byteLength":5760,"target":34962,"byteStride":12},{"buffer":0,"byteOffset":22208,"byteLength":5760,"target":34962,"byteStride":12},{"buffer":0,"byteOffset":27968,"byteLength":3840,"target":34962,"byteStride":8},{"buffer":0,"byteOffset":31808,"byteLength":3840,"target":34962,"byteStride":8},{"buffer":0,"byteOffset":35648,"byteLength":7680,"target":34962,"byteStride":16},{"buffer":0,"byteOffset":43328,"byteLength":1152,"target":34963},{"buffer":0,"byteOffset":44480,"byteLength":64}],"buffers":[{"byteLength":44544,"uri":"data:application/octet-stream;base64,"}],"accessors":[{"bufferView":0,"componentType":5126,"count":76,"max":[1,0,0],"min":[-2,-0.375,-1.875],"type":"VEC3"},{"bufferView":1,"componentType":5126,"count":76,"max":[1,1,1],"min":[-1,-1,-1],"type":"VEC3"},{"bufferView":2,"componentType":5126,"count":76,"max":[1.330078125,0.4705115854740143],"min":[0.181640625,0],"type":"VEC2"},{"bufferView":3,"componentType":5123,"count":42,"max":[27],"min":[0],"type":"SCALAR"},{"bufferView":4,"componentType":5123,"count":6,"max":[31],"min":[28],"type":"SCALAR"},{"bufferView":5,"componentType":5123,"count":66,"max":[75],"min":[32],"type":"SCALAR"},{"bufferView":6,"componentType":5126,"count":20,"max":[-0.5,0.5,0.9375],"min":[-1.5,0.375,-0.9375],"type":"VEC3"},{"bufferView":7,"componentType":5126,"count":20,"max":[1,1,1],"min":[-1,0,-1],"type":"VEC3"},{"bufferView":8,"componentType":5126,"count":20,"max":[0.48727506399154663,0.1847790628671646],"min":[0.255859375,0.016798092052340508],"type":"VEC2"},{"bufferView":9,"componentType":5123,"count":30,"max":[19],"min":[0],"type":"SCALAR"},{"bufferView":10,"componentType":5126,"count":20,"max":[1,0.125,0],"min":[-0.9375,0,-1.875],"type":"VEC3"},{"bufferView":11,"componentType":5126,"count":20,"max":[1,1,1],"min":[-1,0,-1],"type":"VEC3"},{"bufferView":12,"componentType":5126,"count":20,"max":[0.494140625,0.1715441793203354],"min":[0.29296875,0.02545166015625],"type":"VEC2"},{"bufferView":13,"componentType":5123,"count":30,"max":[19],"min":[0],"type":"SCALAR"},{"bufferView":14,"componentType":5126,"count":120,"max":[0.0625,0.0625,0.0625],"min":[-0.0625,0,-0.0625],"type":"VEC3"},{"bufferView":15,"componentType":5126,"count":120,"max":[1,1,1],"min":[-1,-1,-1],"type":"VEC3"},{"bufferView":16,"componentType":5126,"count":120,"max":[0.18091292679309845,0.055933717638254166],"min":[0.1640625,0.042758796364068985],"type":"VEC2"},{"bufferView":17,"componentType":5123,"count":144,"max":[119],"min":[0],"type":"SCALAR"},{"bufferView":18,"componentType":5126,"count":24,"max":[1.375,0.0625,0.875],"min":[-1.375,0,-0.875],"type":"VEC3"},{"bufferView":19,"componentType":5126,"count":24,"max":[1,1,1],"min":[-1,-1,-1],"type":"VEC3"},{"bufferView":20,"componentType":5126,"count":24,"max":[0.1861979067325592,0.03105100803077221],"min":[0.15625,0],"type":"VEC2"},{"bufferView":21,"componentType":5123,"count":36,"max":[23],"min":[0],"type":"SCALAR"},{"bufferView":22,"componentType":5126,"count":68,"max":[0.109375,0.15625,0.015625],"min":[-0.109375,-0.09375,-0.015625],"type":"VEC3"},{"bufferView":23,"componentType":5126,"count":68,"max":[1,1,1],"min":[-1,-1,-1],"type":"VEC3"},{"bufferView":24,"componentType":5126,"count":68,"max":[0.47208333015441895,0.2593749761581421],"min":[0,0],"type":"VEC2"},{"bufferView":25,"componentType":5123,"count":6,"max":[3],"min":[0],"type":"SCALAR"},{"bufferView":26,"componentType":5123,"count":6,"max":[7],"min":[4],"type":"SCALAR"},{"bufferView":27,"componentType":5123,"count":12,"max":[15],"min":[8],"type":"SCALAR"},{"bufferView":28,"componentType":5123,"count":12,"max":[23],"min":[16],"type":"SCALAR"},{"bufferView":29,"componentType":5123,"count":54,"max":[59],"min":[24],"type":"SCALAR"},{"bufferView":30,"componentType":5123,"count":12,"max":[67],"min":[60],"type":"SCALAR"},{"bufferView":31,"componentType":5126,"count":24,"max":[0.03125,0.0625,0.015625],"min":[-0.03125,0,-0.015625],"type":"VEC3"},{"bufferView":32,"componentType":5126,"count":24,"max":[1,1,1],"min":[-1,-1,-1],"type":"VEC3"},{"bufferView":33,"componentType":5126,"count":24,"max":[0.0940755158662796,0.21773895621299744],"min":[0,0.12560392916202545],"type":"VEC2"},{"bufferView":34,"componentType":5123,"count":36,"max":[23],"min":[0],"type":"SCALAR"},{"bufferView":35,"componentType":5126,"count":24,"max":[0.0625,0.15625,0.015625],"min":[-0.0625,-0.09375,-0.015625],"type":"VEC3"},{"bufferView":36,"componentType":5126,"count":24,"max":[1,1,1],"min":[-1,-1,-1],"type":"VEC3"},{"bufferView":37,"componentType":5126,"count":24,"max":[0.3528645634651184,0.055484626442193985],"min":[0.3203125,0.004581306595355272],"type":"VEC2"},{"bufferView":38,"componentType":5123,"count":36,"max":[23],"min":[0],"type":"SCALAR"},{"bufferView":39,"componentType":5126,"count":24,"max":[0.0625,0.15625,0.015625],"min":[-0.0625,-0.09375,-0.015625],"type":"VEC3"},{"bufferView":40,"componentType":5126,"count":24,"max":[1,1,1],"min":[-1,-1,-1],"type":"VEC3"},{"bufferView":41,"componentType":5126,"count":24,"max":[0.2532551884651184,0.0509033203125],"min":[0.220703125,0],"type":"VEC2"},{"bufferView":42,"componentType":5123,"count":36,"max":[23],"min":[0],"type":"SCALAR"},{"bufferView":43,"componentType":5126,"count":24,"max":[0.03125,0.0625,0.015625],"min":[-0.03125,0,-0.015625],"type":"VEC3"},{"bufferView":44,"componentType":5126,"count":24,"max":[1,1,1],"min":[-1,-1,-1],"type":"VEC3"},{"bufferView":45,"componentType":5126,"count":24,"max":[0.1896158903837204,0.21748444437980652],"min":[0.0955403670668602,0.12534940242767334],"type":"VEC2"},{"bufferView":46,"componentType":5123,"count":36,"max":[23],"min":[0],"type":"SCALAR"},{"bufferView":47,"componentType":5126,"count":24,"max":[0.359375,0.15625,0.015625],"min":[-0.359375,-0.09375,-0.015625],"type":"VEC3"},{"bufferView":48,"componentType":5126,"count":24,"max":[1,1,1],"min":[-1,-1,-1],"type":"VEC3"},{"bufferView":49,"componentType":5126,"count":24,"max":[0.5618489980697632,0.814453125],"min":[0,0],"type":"VEC2"},{"bufferView":50,"componentType":5123,"count":24,"max":[15],"min":[0],"type":"SCALAR"},{"bufferView":51,"componentType":5123,"count":6,"max":[19],"min":[16],"type":"SCALAR"},{"bufferView":52,"componentType":5123,"count":6,"max":[23],"min":[20],"type":"SCALAR"},{"bufferView":53,"componentType":5126,"count":24,"max":[0.421875,0.15625,0.015625],"min":[-0.421875,-0.09375,-0.015625],"type":"VEC3"},{"bufferView":54,"componentType":5126,"count":24,"max":[1,1,1],"min":[-1,-1,-1],"type":"VEC3"},{"bufferView":55,"componentType":5126,"count":24,"max":[0.5628255009651184,0.5304206013679504],"min":[0,0],"type":"VEC2"},{"bufferView":56,"componentType":5123,"count":36,"max":[23],"min":[0],"type":"SCALAR"},{"bufferView":57,"componentType":5126,"count":480,"max":[0.0625,0.0625,0.0625],"min":[-2.5625,0,-1.5625],"type":"VEC3"},{"bufferView":58,"componentType":5126,"count":480,"max":[1,1,1],"min":[-1,-1,-1],"type":"VEC3"},{"bufferView":59,"componentType":5126,"count":480,"max":[0.18091292679309845,0.05287949740886688],"min":[0.1640625,0.0397045761346817],"type":"VEC2"},{"bufferView":60,"componentType":5123,"count":480,"max":[0,0,0,0],"min":[0,0,0,0],"type":"VEC4"},{"bufferView":61,"componentType":5126,"count":480,"max":[0,1,0,0],"min":[0,1,0,0],"type":"VEC4"},{"bufferView":62,"componentType":5123,"count":576,"max":[479],"min":[0],"type":"SCALAR"},{"bufferView":63,"componentType":5126,"count":1,"max":[1,0,0,0,0,1,0,0,0,0,1,0,0,0,0,1],"min":[1,0,0,0,0,1,0,0,0,0,1,0,0,0,0,1],"type":"MAT4"}],"materials":[{"pbrMetallicRoughness":{"metallicFactor":0,"roughnessFactor":1,"baseColorTexture":{"index":0}},"alphaMode":"MASK","alphaCutoff":0.05,"doubleSided":true},{"pbrMetallicRoughness":{"metallicFactor":0,"roughnessFactor":1},"alphaMode":"MASK","alphaCutoff":0.05,"doubleSided":true},{"pbrMetallicRoughness":{"metallicFactor":0,"roughnessFactor":1},"alphaMode":"MASK","alphaCutoff":0.05,"doubleSided":true}],"textures":[{"sampler":0,"source":0,"name":"buttons.png"}],"samplers":[{"magFilter":9728,"minFilter":9728,"wrapS":33071,"wrapT":33071}],"images":[{"mimeType":"image/png","uri":"data:image/png;base64,"}],"meshes":[{"primitives":[{"mode":4,"attributes":{"POSITION":0,"NORMAL":1,"TEXCOORD_0":2},"indices":3,"material":0},{"mode":4,"attributes":{"POSITION":0,"NORMAL":1,"TEXCOORD_0":2},"indices":4,"material":1},{"mode":4,"attributes":{"POSITION":0,"NORMAL":1,"TEXCOORD_0":2},"indices":5,"material":0}]},{"primitives":[{"mode":4,"attributes":{"POSITION":6,"NORMAL":7,"TEXCOORD_0":8},"indices":9,"material":0}]},{"primitives":[{"mode":4,"attributes":{"POSITION":10,"NORMAL":11,"TEXCOORD_0":12},"indices":13,"material":0}]},{"primitives":[{"mode":4,"attributes":{"POSITION":14,"NORMAL":15,"TEXCOORD_0":16},"indices":17,"material":0}]},{"primitives":[{"mode":4,"attributes":{"POSITION":18,"NORMAL":19,"TEXCOORD_0":20},"indices":21,"material":0}]},{"primitives":[{"mode":4,"attributes":{"POSITION":22,"NORMAL":23,"TEXCOORD_0":24},"indices":25,"material":2},{"mode":4,"attributes":{"POSITION":22,"NORMAL":23,"TEXCOORD_0":24},"indices":26,"material":0},{"mode":4,"attributes":{"POSITION":22,"NORMAL":23,"TEXCOORD_0":24},"indices":27,"material":2},{"mode":4,"attributes":{"POSITION":22,"NORMAL":23,"TEXCOORD_0":24},"indices":28,"material":0},{"mode":4,"attributes":{"POSITION":22,"NORMAL":23,"TEXCOORD_0":24},"indices":29,"material":2},{"mode":4,"attributes":{"POSITION":22,"NORMAL":23,"TEXCOORD_0":24},"indices":30,"material":0}]},{"primitives":[{"mode":4,"attributes":{"POSITION":31,"NORMAL":32,"TEXCOORD_0":33},"indices":34,"material":0}]},{"primitives":[{"mode":4,"attributes":{"POSITION":35,"NORMAL":36,"TEXCOORD_0":37},"indices":38,"material":0}]},{"primitives":[{"mode":4,"attributes":{"POSITION":39,"NORMAL":40,"TEXCOORD_0":41},"indices":42,"material":0}]},{"primitives":[{"mode":4,"attributes":{"POSITION":43,"NORMAL":44,"TEXCOORD_0":45},"indices":46,"material":0}]},{"primitives":[{"mode":4,"attributes":{"POSITION":47,"NORMAL":48,"TEXCOORD_0":49},"indices":50,"material":0},{"mode":4,"attributes":{"POSITION":47,"NORMAL":48,"TEXCOORD_0":49},"indices":51,"material":2},{"mode":4,"attributes":{"POSITION":47,"NORMAL":48,"TEXCOORD_0":49},"indices":52,"material":0}]},{"primitives":[{"mode":4,"attributes":{"POSITION":53,"NORMAL":54,"TEXCOORD_0":55},"indices":56,"material":0}]},{"primitives":[{"mode":4,"attributes":{"POSITION":57,"NORMAL":58,"TEXCOORD_0":59,"JOINTS_0":60,"WEIGHTS_0":61},"indices":62,"material":0}]}],"skins":[{"inverseBindMatrices":63,"joints":[12],"skeleton":12}]}