{
	"asset":{
		"generator":"Khronos glTF Blender I/O v5.0.21",
		"version":"2.0"
	},
	"extensionsUsed":[
		"KHR_materials_unlit"
	],
	"scene":0,
	"scenes":[
		{
			"name":"Scene",
			"nodes":[
				0,
				1,
				2,
				3,
				4,
				5,
				6,
				7,
				8,
				9,
				10,
				11,
				12,
				13
			]
		}
	],
	"nodes":[
		{
			"mesh":0,
			"name":"Arm01.001"
		},
		{
			"mesh":1,
			"name":"Arm02.001"
		},
		{
			"mesh":2,
			"name":"BackBowtie.001"
		},
		{
			"mesh":3,
			"name":"Body.001"
		},
		{
			"mesh":4,
			"name":"HairBack.001"
		},
		{
			"mesh":5,
			"name":"HairFront.001"
		},
		{
			"mesh":6,
			"name":"HairSide 03.001"
		},
		{
			"mesh":7,
			"name":"HairTwintails.001"
		},
		{
			"mesh":8,
			"name":"Head.001"
		},
		{
			"mesh":9,
			"name":"HeadBand.001"
		},
		{
			"mesh":10,
			"name":"HeadPhones.001"
		},
		{
			"mesh":11,
			"name":"HeadRibbons.001"
		},
		{
			"mesh":12,
			"name":"ShoeChord.001"
		},
		{
			"mesh":13,
			"name":"Strap.001"
		}
	],
	"materials":[
		{
			"doubleSided":true,
			"extensions":{
				"KHR_materials_unlit":{}
			},
			"name":"M_Miku",
			"pbrMetallicRoughness":{
				"baseColorTexture":{
					"index":0
				},
				"metallicFactor":0,
				"roughnessFactor":0.9
			}
		},
		{
			"doubleSided":true,
			"extensions":{
				"KHR_materials_unlit":{}
			},
			"name":"M_Miku",
			"pbrMetallicRoughness":{
				"baseColorTexture":{
					"index":0,
					"texCoord":1
				},
				"metallicFactor":0,
				"roughnessFactor":0.9
			}
		},
		{
			"doubleSided":true,
			"extensions":{
				"KHR_materials_unlit":{}
			},
			"name":"M_MikuEye",
			"pbrMetallicRoughness":{
				"baseColorTexture":{
					"index":1,
					"texCoord":1
				},
				"metallicFactor":0,
				"roughnessFactor":0.9
			}
		},
		{
			"doubleSided":true,
			"extensions":{
				"KHR_materials_unlit":{}
			},
			"name":"M_MikuMouth",
			"pbrMetallicRoughness":{
				"baseColorTexture":{
					"index":2,
					"texCoord":1
				},
				"metallicFactor":0,
				"roughnessFactor":0.9
			}
		}
	],
	"meshes":[
		{
			"name":"Cube.018",
			"primitives":[
				{
					"attributes":{
						"POSITION":0,
						"NORMAL":1,
						"TEXCOORD_0":2,
						"COLOR_0":3,
						"COLOR_1":4
					},
					"indices":5,
					"material":0
				}
			]
		},
		{
			"name":"Cube.021",
			"primitives":[
				{
					"attributes":{
						"POSITION":6,
						"NORMAL":7,
						"TEXCOORD_0":8,
						"COLOR_0":9,
						"COLOR_1":10
					},
					"indices":11,
					"material":0
				}
			]
		},
		{
			"name":"Plane.003",
			"primitives":[
				{
					"attributes":{
						"POSITION":12,
						"NORMAL":13,
						"TEXCOORD_0":14
					},
					"indices":15,
					"material":0
				}
			]
		},
		{
			"name":"Cube.004",
			"primitives":[
				{
					"attributes":{
						"POSITION":16,
						"NORMAL":17,
						"TEXCOORD_0":18,
						"COLOR_0":19,
						"COLOR_1":20,
						"COLOR_2":21
					},
					"indices":22,
					"material":0
				}
			]
		},
		{
			"name":"Cube.007",
			"primitives":[
				{
					"attributes":{
						"POSITION":23,
						"NORMAL":24,
						"TEXCOORD_0":25
					},
					"indices":26,
					"material":0
				}
			]
		},
		{
			"name":"Plane.007",
			"primitives":[
				{
					"attributes":{
						"POSITION":27,
						"NORMAL":28,
						"TEXCOORD_0":29,
						"COLOR_0":30,
						"COLOR_1":31
					},
					"indices":32,
					"material":0
				}
			]
		},
		{
			"name":"Plane.008",
			"primitives":[
				{
					"attributes":{
						"POSITION":33,
						"NORMAL":34,
						"TEXCOORD_0":35
					},
					"indices":36,
					"material":0
				}
			]
		},
		{
			"name":"Cube.022",
			"primitives":[
				{
					"attributes":{
						"POSITION":37,
						"NORMAL":38,
						"TEXCOORD_0":39,
						"COLOR_0":40,
						"COLOR_1":41
					},
					"indices":42,
					"material":0
				}
			]
		},
		{
			"name":"Cube.014",
			"primitives":[
				{
					"attributes":{
						"POSITION":43,
						"NORMAL":44,
						"TEXCOORD_0":45,
						"TEXCOORD_1":46,
						"COLOR_0":47,
						"COLOR_1":48
					},
					"indices":49,
					"material":1
				},
				{
					"attributes":{
						"POSITION":50,
						"NORMAL":51,
						"TEXCOORD_0":52,
						"TEXCOORD_1":53,
						"COLOR_0":54,
						"COLOR_1":55
					},
					"indices":56,
					"material":2
				},
				{
					"attributes":{
						"POSITION":57,
						"NORMAL":58,
						"TEXCOORD_0":59,
						"TEXCOORD_1":60,
						"COLOR_0":61,
						"COLOR_1":62
					},
					"indices":63,
					"material":3
				}
			]
		},
		{
			"name":"Plane.005",
			"primitives":[
				{
					"attributes":{
						"POSITION":64,
						"NORMAL":65,
						"TEXCOORD_0":66
					},
					"indices":67,
					"material":0
				}
			]
		},
		{
			"name":"Cube.006",
			"primitives":[
				{
					"attributes":{
						"POSITION":68,
						"NORMAL":69,
						"TEXCOORD_0":70
					},
					"indices":71,
					"material":0
				}
			]
		},
		{
			"name":"Plane.009",
			"primitives":[
				{
					"attributes":{
						"POSITION":72,
						"NORMAL":73,
						"TEXCOORD_0":74
					},
					"indices":75,
					"material":0
				}
			]
		},
		{
			"name":"Cube.020",
			"primitives":[
				{
					"attributes":{
						"POSITION":76,
						"NORMAL":77,
						"TEXCOORD_0":78
					},
					"indices":79,
					"material":0
				}
			]
		},
		{
			"name":"Cube.019",
			"primitives":[
				{
					"attributes":{
						"POSITION":80,
						"NORMAL":81,
						"TEXCOORD_0":82,
						"COLOR_0":83,
						"COLOR_1":84
					},
					"indices":85,
					"material":0
				}
			]
		}
	],
	"textures":[
		{
			"sampler":0,
			"source":0
		},
		{
			"sampler":0,
			"source":1
		},
		{
			"sampler":0,
			"source":1
		}
	],
	"images":[
		{
			"mimeType":"image/png",
			"name":"T_MikuExpo_MAIN",
			"uri":"T_MikuExpo_MAIN.png"
		},
		{
			"mimeType":"image/png",
			"name":"T_MikuExpo_EXPRESSIONs",
			"uri":"T_MikuExpo_EXPRESSIONs.png"
		}
	],
	"accessors":[
		{
			"bufferView":0,
			"componentType":5126,
			"count":232,
			"max":[
				-0.0050008296966552734,
				0.5042743682861328,
				0.17139697074890137
			],
			"min":[
				-0.23515231907367706,
				0.17318874597549438,
				-0.1455499678850174
			],
			"type":"VEC3"
		},
		{
			"bufferView":1,
			"componentType":5126,
			"count":232,
			"type":"VEC3"
		},
		{
			"bufferView":2,
			"componentType":5126,
			"count":232,
			"type":"VEC2"
		},
		{
			"bufferView":3,
			"componentType":5121,
			"count":232,
			"normalized":true,
			"type":"VEC4"
		},
		{
			"bufferView":4,
			"componentType":5123,
			"count":232,
			"normalized":true,
			"type":"VEC4"
		},
		{
			"bufferView":5,
			"componentType":5123,
			"count":1044,
			"type":"SCALAR"
		},
		{
			"bufferView":6,
			"componentType":5126,
			"count":92,
			"max":[
				0.014363572001457214,
				0.4617495536804199,
				0.20642511546611786
			],
			"min":[
				-0.26585716009140015,
				0.15040242671966553,
				-0.1120644360780716
			],
			"type":"VEC3"
		},
		{
			"bufferView":7,
			"componentType":5126,
			"count":92,
			"type":"VEC3"
		},
		{
			"bufferView":8,
			"componentType":5126,
			"count":92,
			"type":"VEC2"
		},
		{
			"bufferView":9,
			"componentType":5121,
			"count":92,
			"normalized":true,
			"type":"VEC4"
		},
		{
			"bufferView":10,
			"componentType":5123,
			"count":92,
			"normalized":true,
			"type":"VEC4"
		},
		{
			"bufferView":11,
			"componentType":5123,
			"count":408,
			"type":"SCALAR"
		},
		{
			"bufferView":12,
			"componentType":5126,
			"count":106,
			"max":[
				-0.08016084134578705,
				0.3976624011993408,
				-0.13386259973049164
			],
			"min":[
				-0.15615302324295044,
				0.34103885293006897,
				-0.1553259789943695
			],
			"type":"VEC3"
		},
		{
			"bufferView":13,
			"componentType":5126,
			"count":106,
			"type":"VEC3"
		},
		{
			"bufferView":14,
			"componentType":5126,
			"count":106,
			"type":"VEC2"
		},
		{
			"bufferView":15,
			"componentType":5123,
			"count":288,
			"type":"SCALAR"
		},
		{
			"bufferView":16,
			"componentType":5126,
			"count":1657,
			"max":[
				0.04355908930301666,
				0.657496988773346,
				0.3985599875450134
			],
			"min":[
				-0.3613617718219757,
				-0.19264423847198486,
				-0.26262393593788147
			],
			"type":"VEC3"
		},
		{
			"bufferView":17,
			"componentType":5126,
			"count":1657,
			"type":"VEC3"
		},
		{
			"bufferView":18,
			"componentType":5126,
			"count":1657,
			"type":"VEC2"
		},
		{
			"bufferView":19,
			"componentType":5121,
			"count":1657,
			"normalized":true,
			"type":"VEC4"
		},
		{
			"bufferView":20,
			"componentType":5123,
			"count":1657,
			"normalized":true,
			"type":"VEC4"
		},
		{
			"bufferView":21,
			"componentType":5123,
			"count":1657,
			"normalized":true,
			"type":"VEC4"
		},
		{
			"bufferView":22,
			"componentType":5123,
			"count":6534,
			"type":"SCALAR"
		},
		{
			"bufferView":23,
			"componentType":5126,
			"count":127,
			"max":[
				-0.021113261580467224,
				0.9465129375457764,
				-0.03030063956975937
			],
			"min":[
				-0.40188872814178467,
				0.5804481506347656,
				-0.3744059205055237
			],
			"type":"VEC3"
		},
		{
			"bufferView":24,
			"componentType":5126,
			"count":127,
			"type":"VEC3"
		},
		{
			"bufferView":25,
			"componentType":5126,
			"count":127,
			"type":"VEC2"
		},
		{
			"bufferView":26,
			"componentType":5123,
			"count":672,
			"type":"SCALAR"
		},
		{
			"bufferView":27,
			"componentType":5126,
			"count":306,
			"max":[
				0.012285023927688599,
				0.9673867225646973,
				0.04550865292549133
			],
			"min":[
				-0.31863418221473694,
				0.6331942677497864,
				-0.1762060821056366
			],
			"type":"VEC3"
		},
		{
			"bufferView":28,
			"componentType":5126,
			"count":306,
			"type":"VEC3"
		},
		{
			"bufferView":29,
			"componentType":5126,
			"count":306,
			"type":"VEC2"
		},
		{
			"bufferView":30,
			"componentType":5121,
			"count":306,
			"normalized":true,
			"type":"VEC4"
		},
		{
			"bufferView":31,
			"componentType":5123,
			"count":306,
			"normalized":true,
			"type":"VEC4"
		},
		{
			"bufferView":32,
			"componentType":5123,
			"count":1020,
			"type":"SCALAR"
		},
		{
			"bufferView":33,
			"componentType":5126,
			"count":168,
			"max":[
				0.013892590999603271,
				0.9707920551300049,
				0.01707010716199875
			],
			"min":[
				-0.3880367875099182,
				0.5809465646743774,
				-0.24082666635513306
			],
			"type":"VEC3"
		},
		{
			"bufferView":34,
			"componentType":5126,
			"count":168,
			"type":"VEC3"
		},
		{
			"bufferView":35,
			"componentType":5126,
			"count":168,
			"type":"VEC2"
		},
		{
			"bufferView":36,
			"componentType":5123,
			"count":540,
			"type":"SCALAR"
		},
		{
			"bufferView":37,
			"componentType":5126,
			"count":772,
			"max":[
				0.6333363056182861,
				1.10872483253479,
				-0.08041268587112427
			],
			"min":[
				-1.248816728591919,
				-0.19208699464797974,
				-0.9159336686134338
			],
			"type":"VEC3"
		},
		{
			"bufferView":38,
			"componentType":5126,
			"count":772,
			"type":"VEC3"
		},
		{
			"bufferView":39,
			"componentType":5126,
			"count":772,
			"type":"VEC2"
		},
		{
			"bufferView":40,
			"componentType":5121,
			"count":772,
			"normalized":true,
			"type":"VEC4"
		},
		{
			"bufferView":41,
			"componentType":5123,
			"count":772,
			"normalized":true,
			"type":"VEC4"
		},
		{
			"bufferView":42,
			"componentType":5123,
			"count":2928,
			"type":"SCALAR"
		},
		{
			"bufferView":43,
			"componentType":5126,
			"count":292,
			"max":[
				-0.019446127116680145,
				0.9142199158668518,
				0.007091201841831207
			],
			"min":[
				-0.35552287101745605,
				0.5859252214431763,
				-0.3248421847820282
			],
			"type":"VEC3"
		},
		{
			"bufferView":44,
			"componentType":5126,
			"count":292,
			"type":"VEC3"
		},
		{
			"bufferView":45,
			"componentType":5126,
			"count":292,
			"type":"VEC2"
		},
		{
			"bufferView":46,
			"componentType":5126,
			"count":292,
			"type":"VEC2"
		},
		{
			"bufferView":47,
			"componentType":5121,
			"count":292,
			"normalized":true,
			"type":"VEC4"
		},
		{
			"bufferView":48,
			"componentType":5123,
			"count":292,
			"normalized":true,
			"type":"VEC4"
		},
		{
			"bufferView":49,
			"componentType":5123,
			"count":1260,
			"type":"SCALAR"
		},
		{
			"bufferView":50,
			"componentType":5126,
			"count":56,
			"max":[
				-0.024080194532871246,
				0.8466055393218994,
				0.010624393820762634
			],
			"min":[
				-0.2921041250228882,
				0.6353389024734497,
				-0.13081587851047516
			],
			"type":"VEC3"
		},
		{
			"bufferView":51,
			"componentType":5126,
			"count":56,
			"type":"VEC3"
		},
		{
			"bufferView":52,
			"componentType":5126,
			"count":56,
			"type":"VEC2"
		},
		{
			"bufferView":53,
			"componentType":5126,
			"count":56,
			"type":"VEC2"
		},
		{
			"bufferView":54,
			"componentType":5121,
			"count":56,
			"normalized":true,
			"type":"VEC4"
		},
		{
			"bufferView":55,
			"componentType":5123,
			"count":56,
			"normalized":true,
			"type":"VEC4"
		},
		{
			"bufferView":56,
			"componentType":5123,
			"count":246,
			"type":"SCALAR"
		},
		{
			"bufferView":57,
			"componentType":5126,
			"count":22,
			"max":[
				-0.04369533807039261,
				0.6917052268981934,
				0.010624393820762634
			],
			"min":[
				-0.1839505285024643,
				0.5948724746704102,
				-0.06605249643325806
			],
			"type":"VEC3"
		},
		{
			"bufferView":58,
			"componentType":5126,
			"count":22,
			"type":"VEC3"
		},
		{
			"bufferView":59,
			"componentType":5126,
			"count":22,
			"type":"VEC2"
		},
		{
			"bufferView":60,
			"componentType":5126,
			"count":22,
			"type":"VEC2"
		},
		{
			"bufferView":61,
			"componentType":5121,
			"count":22,
			"normalized":true,
			"type":"VEC4"
		},
		{
			"bufferView":62,
			"componentType":5123,
			"count":22,
			"normalized":true,
			"type":"VEC4"
		},
		{
			"bufferView":63,
			"componentType":5123,
			"count":78,
			"type":"SCALAR"
		},
		{
			"bufferView":64,
			"componentType":5126,
			"count":201,
			"max":[
				-0.1997920423746109,
				0.9661848545074463,
				0.07074296474456787
			],
			"min":[
				-0.41305744647979736,
				0.8229882717132568,
				-0.12129596620798111
			],
			"type":"VEC3"
		},
		{
			"bufferView":65,
			"componentType":5126,
			"count":201,
			"type":"VEC3"
		},
		{
			"bufferView":66,
			"componentType":5126,
			"count":201,
			"type":"VEC2"
		},
		{
			"bufferView":67,
			"componentType":5123,
			"count":576,
			"type":"SCALAR"
		},
		{
			"bufferView":68,
			"componentType":5126,
			"count":138,
			"max":[
				-0.006240427494049072,
				0.7577054500579834,
				-0.021940384060144424
			],
			"min":[
				-0.34879374504089355,
				0.5790085792541504,
				-0.2573939859867096
			],
			"type":"VEC3"
		},
		{
			"bufferView":69,
			"componentType":5126,
			"count":138,
			"type":"VEC3"
		},
		{
			"bufferView":70,
			"componentType":5126,
			"count":138,
			"type":"VEC2"
		},
		{
			"bufferView":71,
			"componentType":5123,
			"count":576,
			"type":"SCALAR"
		},
		{
			"bufferView":72,
			"componentType":5126,
			"count":32,
			"max":[
				-0.1777808666229248,
				0.847633421421051,
				0.1305135190486908
			],
			"min":[
				-0.30333200097084045,
				0.6194220185279846,
				0.04095233976840973
			],
			"type":"VEC3"
		},
		{
			"bufferView":73,
			"componentType":5126,
			"count":32,
			"type":"VEC3"
		},
		{
			"bufferView":74,
			"componentType":5126,
			"count":32,
			"type":"VEC2"
		},
		{
			"bufferView":75,
			"componentType":5123,
			"count":84,
			"type":"SCALAR"
		},
		{
			"bufferView":76,
			"componentType":5126,
			"count":196,
			"max":[
				-0.13187232613563538,
				0.002757050096988678,
				0.27558794617652893
			],
			"min":[
				-0.33065006136894226,
				-0.14269110560417175,
				0.13697019219398499
			],
			"type":"VEC3"
		},
		{
			"bufferView":77,
			"componentType":5126,
			"count":196,
			"type":"VEC3"
		},
		{
			"bufferView":78,
			"componentType":5126,
			"count":196,
			"type":"VEC2"
		},
		{
			"bufferView":79,
			"componentType":5123,
			"count":576,
			"type":"SCALAR"
		},
		{
			"bufferView":80,
			"componentType":5126,
			"count":84,
			"max":[
				0.07048080861568451,
				0.5596510767936707,
				-0.04717017710208893
			],
			"min":[
				-0.3067946434020996,
				0.05247095227241516,
				-0.23892474174499512
			],
			"type":"VEC3"
		},
		{
			"bufferView":81,
			"componentType":5126,
			"count":84,
			"type":"VEC3"
		},
		{
			"bufferView":82,
			"componentType":5126,
			"count":84,
			"type":"VEC2"
		},
		{
			"bufferView":83,
			"componentType":5121,
			"count":84,
			"normalized":true,
			"type":"VEC4"
		},
		{
			"bufferView":84,
			"componentType":5123,
			"count":84,
			"normalized":true,
			"type":"VEC4"
		},
		{
			"bufferView":85,
			"componentType":5123,
			"count":228,
			"type":"SCALAR"
		}
	],
	"bufferViews":[
		{
			"buffer":0,
			"byteLength":2784,
			"byteOffset":0,
			"target":34962
		},
		{
			"buffer":0,
			"byteLength":2784,
			"byteOffset":2784,
			"target":34962
		},
		{
			"buffer":0,
			"byteLength":1856,
			"byteOffset":5568,
			"target":34962
		},
		{
			"buffer":0,
			"byteLength":928,
			"byteOffset":7424,
			"target":34962
		},
		{
			"buffer":0,
			"byteLength":1856,
			"byteOffset":8352,
			"target":34962
		},
		{
			"buffer":0,
			"byteLength":2088,
			"byteOffset":10208,
			"target":34963
		},
		{
			"buffer":0,
			"byteLength":1104,
			"byteOffset":12296,
			"target":34962
		},
		{
			"buffer":0,
			"byteLength":1104,
			"byteOffset":13400,
			"target":34962
		},
		{
			"buffer":0,
			"byteLength":736,
			"byteOffset":14504,
			"target":34962
		},
		{
			"buffer":0,
			"byteLength":368,
			"byteOffset":15240,
			"target":34962
		},
		{
			"buffer":0,
			"byteLength":736,
			"byteOffset":15608,
			"target":34962
		},
		{
			"buffer":0,
			"byteLength":816,
			"byteOffset":16344,
			"target":34963
		},
		{
			"buffer":0,
			"byteLength":1272,
			"byteOffset":17160,
			"target":34962
		},
		{
			"buffer":0,
			"byteLength":1272,
			"byteOffset":18432,
			"target":34962
		},
		{
			"buffer":0,
			"byteLength":848,
			"byteOffset":19704,
			"target":34962
		},
		{
			"buffer":0,
			"byteLength":576,
			"byteOffset":20552,
			"target":34963
		},
		{
			"buffer":0,
			"byteLength":19884,
			"byteOffset":21128,
			"target":34962
		},
		{
			"buffer":0,
			"byteLength":19884,
			"byteOffset":41012,
			"target":34962
		},
		{
			"buffer":0,
			"byteLength":13256,
			"byteOffset":60896,
			"target":34962
		},
		{
			"buffer":0,
			"byteLength":6628,
			"byteOffset":74152,
			"target":34962
		},
		{
			"buffer":0,
			"byteLength":13256,
			"byteOffset":80780,
			"target":34962
		},
		{
			"buffer":0,
			"byteLength":13256,
			"byteOffset":94036,
			"target":34962
		},
		{
			"buffer":0,
			"byteLength":13068,
			"byteOffset":107292,
			"target":34963
		},
		{
			"buffer":0,
			"byteLength":1524,
			"byteOffset":120360,
			"target":34962
		},
		{
			"buffer":0,
			"byteLength":1524,
			"byteOffset":121884,
			"target":34962
		},
		{
			"buffer":0,
			"byteLength":1016,
			"byteOffset":123408,
			"target":34962
		},
		{
			"buffer":0,
			"byteLength":1344,
			"byteOffset":124424,
			"target":34963
		},
		{
			"buffer":0,
			"byteLength":3672,
			"byteOffset":125768,
			"target":34962
		},
		{
			"buffer":0,
			"byteLength":3672,
			"byteOffset":129440,
			"target":34962
		},
		{
			"buffer":0,
			"byteLength":2448,
			"byteOffset":133112,
			"target":34962
		},
		{
			"buffer":0,
			"byteLength":1224,
			"byteOffset":135560,
			"target":34962
		},
		{
			"buffer":0,
			"byteLength":2448,
			"byteOffset":136784,
			"target":34962
		},
		{
			"buffer":0,
			"byteLength":2040,
			"byteOffset":139232,
			"target":34963
		},
		{
			"buffer":0,
			"byteLength":2016,
			"byteOffset":141272,
			"target":34962
		},
		{
			"buffer":0,
			"byteLength":2016,
			"byteOffset":143288,
			"target":34962
		},
		{
			"buffer":0,
			"byteLength":1344,
			"byteOffset":145304,
			"target":34962
		},
		{
			"buffer":0,
			"byteLength":1080,
			"byteOffset":146648,
			"target":34963
		},
		{
			"buffer":0,
			"byteLength":9264,
			"byteOffset":147728,
			"target":34962
		},
		{
			"buffer":0,
			"byteLength":9264,
			"byteOffset":156992,
			"target":34962
		},
		{
			"buffer":0,
			"byteLength":6176,
			"byteOffset":166256,
			"target":34962
		},
		{
			"buffer":0,
			"byteLength":3088,
			"byteOffset":172432,
			"target":34962
		},
		{
			"buffer":0,
			"byteLength":6176,
			"byteOffset":175520,
			"target":34962
		},
		{
			"buffer":0,
			"byteLength":5856,
			"byteOffset":181696,
			"target":34963
		},
		{
			"buffer":0,
			"byteLength":3504,
			"byteOffset":187552,
			"target":34962
		},
		{
			"buffer":0,
			"byteLength":3504,
			"byteOffset":191056,
			"target":34962
		},
		{
			"buffer":0,
			"byteLength":2336,
			"byteOffset":194560,
			"target":34962
		},
		{
			"buffer":0,
			"byteLength":2336,
			"byteOffset":196896,
			"target":34962
		},
		{
			"buffer":0,
			"byteLength":1168,
			"byteOffset":199232,
			"target":34962
		},
		{
			"buffer":0,
			"byteLength":2336,
			"byteOffset":200400,
			"target":34962
		},
		{
			"buffer":0,
			"byteLength":2520,
			"byteOffset":202736,
			"target":34963
		},
		{
			"buffer":0,
			"byteLength":672,
			"byteOffset":205256,
			"target":34962
		},
		{
			"buffer":0,
			"byteLength":672,
			"byteOffset":205928,
			"target":34962
		},
		{
			"buffer":0,
			"byteLength":448,
			"byteOffset":206600,
			"target":34962
		},
		{
			"buffer":0,
			"byteLength":448,
			"byteOffset":207048,
			"target":34962
		},
		{
			"buffer":0,
			"byteLength":224,
			"byteOffset":207496,
			"target":34962
		},
		{
			"buffer":0,
			"byteLength":448,
			"byteOffset":207720,
			"target":34962
		},
		{
			"buffer":0,
			"byteLength":492,
			"byteOffset":208168,
			"target":34963
		},
		{
			"buffer":0,
			"byteLength":264,
			"byteOffset":208660,
			"target":34962
		},
		{
			"buffer":0,
			"byteLength":264,
			"byteOffset":208924,
			"target":34962
		},
		{
			"buffer":0,
			"byteLength":176,
			"byteOffset":209188,
			"target":34962
		},
		{
			"buffer":0,
			"byteLength":176,
			"byteOffset":209364,
			"target":34962
		},
		{
			"buffer":0,
			"byteLength":88,
			"byteOffset":209540,
			"target":34962
		},
		{
			"buffer":0,
			"byteLength":176,
			"byteOffset":209628,
			"target":34962
		},
		{
			"buffer":0,
			"byteLength":156,
			"byteOffset":209804,
			"target":34963
		},
		{
			"buffer":0,
			"byteLength":2412,
			"byteOffset":209960,
			"target":34962
		},
		{
			"buffer":0,
			"byteLength":2412,
			"byteOffset":212372,
			"target":34962
		},
		{
			"buffer":0,
			"byteLength":1608,
			"byteOffset":214784,
			"target":34962
		},
		{
			"buffer":0,
			"byteLength":1152,
			"byteOffset":216392,
			"target":34963
		},
		{
			"buffer":0,
			"byteLength":1656,
			"byteOffset":217544,
			"target":34962
		},
		{
			"buffer":0,
			"byteLength":1656,
			"byteOffset":219200,
			"target":34962
		},
		{
			"buffer":0,
			"byteLength":1104,
			"byteOffset":220856,
			"target":34962
		},
		{
			"buffer":0,
			"byteLength":1152,
			"byteOffset":221960,
			"target":34963
		},
		{
			"buffer":0,
			"byteLength":384,
			"byteOffset":223112,
			"target":34962
		},
		{
			"buffer":0,
			"byteLength":384,
			"byteOffset":223496,
			"target":34962
		},
		{
			"buffer":0,
			"byteLength":256,
			"byteOffset":223880,
			"target":34962
		},
		{
			"buffer":0,
			"byteLength":168,
			"byteOffset":224136,
			"target":34963
		},
		{
			"buffer":0,
			"byteLength":2352,
			"byteOffset":224304,
			"target":34962
		},
		{
			"buffer":0,
			"byteLength":2352,
			"byteOffset":226656,
			"target":34962
		},
		{
			"buffer":0,
			"byteLength":1568,
			"byteOffset":229008,
			"target":34962
		},
		{
			"buffer":0,
			"byteLength":1152,
			"byteOffset":230576,
			"target":34963
		},
		{
			"buffer":0,
			"byteLength":1008,
			"byteOffset":231728,
			"target":34962
		},
		{
			"buffer":0,
			"byteLength":1008,
			"byteOffset":232736,
			"target":34962
		},
		{
			"buffer":0,
			"byteLength":672,
			"byteOffset":233744,
			"target":34962
		},
		{
			"buffer":0,
			"byteLength":336,
			"byteOffset":234416,
			"target":34962
		},
		{
			"buffer":0,
			"byteLength":672,
			"byteOffset":234752,
			"target":34962
		},
		{
			"buffer":0,
			"byteLength":456,
			"byteOffset":235424,
			"target":34963
		}
	],
	"samplers":[
		{
			"magFilter":9728,
			"minFilter":9984
		}
	],
	"buffers":[
		{
			"byteLength":235880,
			"uri":"miku.bin"
		}
	]
}
